<?xml version="1.0" encoding="UTF-8"?>
<svg width="245px" height="240px" viewBox="0 0 245 240" version="1.1" xmlns="http://www.w3.org/2000/svg" xmlns:xlink="http://www.w3.org/1999/xlink">
    <!-- Generator: Sketch 41.2 (35397) - http://www.bohemiancoding.com/sketch -->
    <title>Artboard</title>
    <desc>Created with Sketch.</desc>
    <defs></defs>
    <g id="Page-1" stroke="none" stroke-width="1" fill="none" fill-rule="evenodd" opacity="0.0990149457">
        <g id="Artboard" fill="#000000">
            <g id="search" transform="translate(3.000000, 2.000000)">
                <path d="M163.38036,99.8498052 C163.38036,82.3613362 157.163775,67.4016047 144.730604,54.9706104 C132.297434,42.5396162 117.335083,36.324119 99.8435523,36.324119 C82.3520217,36.324119 67.3896711,42.5396162 54.9565006,54.9706104 C42.52333,67.4016047 36.3067448,82.3613362 36.3067448,99.8498052 C36.3067448,117.338274 42.52333,132.298006 54.9565006,144.729 C67.3896711,157.159994 82.3520217,163.375491 99.8435523,163.375491 C117.335083,163.375491 132.297434,157.159994 144.730604,144.729 C157.163775,132.298006 163.38036,117.338274 163.38036,99.8498052 Z M235.993858,217.826076 C235.993858,222.741753 234.197427,226.995712 230.604573,230.587937 C227.011719,234.180162 222.757023,235.976271 217.840486,235.976271 C212.734846,235.976271 208.48015,234.180162 205.07639,230.587937 L156.431026,182.092877 C139.506786,193.814883 120.644292,199.675881 99.8435523,199.675881 C86.3230722,199.675881 73.3935182,197.052609 61.0548989,191.806073 C48.7162796,186.559529 38.0795403,179.469605 29.1446725,170.53631 C20.2098132,161.603006 13.118648,150.968129 7.8711854,138.631669 C2.62373129,126.29521 0,113.367919 0,99.8498052 C0,86.3316916 2.62373129,73.4044008 7.8711854,61.0679413 C13.118648,48.7314817 20.2098132,38.0965958 29.1446725,29.1633004 C38.0795403,20.2299966 48.7162796,13.1400811 61.0548989,7.89353701 C73.3935182,2.64699294 86.3230722,0.0237293765 99.8435523,0.0237293765 C113.364033,0.0237293765 126.293586,2.64699294 138.632206,7.89353701 C150.970834,13.1400811 161.607573,20.2299966 170.542432,29.1633004 C179.4773,38.0965958 186.568457,48.7314817 191.815919,61.0679413 C197.063382,73.4044008 199.687113,86.3316916 199.687113,99.8498052 C199.687113,120.646904 193.82508,139.506087 182.101031,156.427365 L230.746395,205.064223 C234.244707,208.561913 235.993858,212.815864 235.993858,217.826076 Z" id="Shape"></path>
            </g>
        </g>
    </g>
</svg>