<?xml version="1.0" encoding="UTF-8"?>
<svg width="151px" height="37px" viewBox="0 0 151 37" version="1.1" xmlns="http://www.w3.org/2000/svg" xmlns:xlink="http://www.w3.org/1999/xlink">
    <!-- Generator: Sketch 41.2 (35397) - http://www.bohemiancoding.com/sketch -->
    <title>Group 2</title>
    <desc>Created with Sketch.</desc>
    <defs></defs>
    <g id="Page-1" stroke="none" stroke-width="1" fill="none" fill-rule="evenodd">
        <g id="Artboard" transform="translate(-153.000000, -57.000000)">
            <g id="Group-2" transform="translate(153.000000, 57.000000)">
                <g id="Group" transform="translate(44.000000, 0.000000)" fill="#FFFFFF">
                    <path d="M8.18467893,10.2189003 L3.25100363,10.2189003 L1.9672031,13.017884 L0.09375,13.017884 L5.79621282,0.76953125 L11.2971488,13.017884 L9.39383989,13.017884 L8.18467893,10.2189003 Z M7.47560305,8.58429378 L5.766357,4.66571658 L3.97500742,8.58429378 L7.47560305,8.58429378 Z M13.3049531,1.49353504 L16.3054637,9.19633822 L19.4403254,0.933738295 L22.440836,9.19633822 L25.6279454,1.49353504 L27.5163265,1.49353504 L22.3661964,13.7493517 L19.4030057,5.58378324 L16.3129276,13.7568157 L11.4165721,1.49353504 L13.3049531,1.49353504 Z M35.4654402,3.21024505 L34.0547524,4.04620819 C33.7910246,3.58841656 33.5397406,3.28986128 33.3008928,3.1505334 C33.052093,2.99130153 32.7311461,2.91168679 32.3380424,2.91168679 C31.8553708,2.91168679 31.4548091,3.04852462 31.1363454,3.3222044 C30.8178816,3.59090818 30.6586522,3.92927083 30.6586522,4.33730249 C30.6586522,4.89959003 31.0766296,5.35239887 31.9125969,5.69574259 L33.0620462,6.16597185 C33.9975334,6.54414754 34.6817226,7.00566424 35.1146342,7.5505358 C35.5475459,8.09540735 35.7639985,8.76342478 35.7639985,9.55460814 C35.7639985,10.6144953 35.4107081,11.4902574 34.7041166,12.1819209 C33.9925492,12.8785603 33.1093232,13.2268748 32.054412,13.2268748 C31.0542369,13.2268748 30.2282339,12.9308075 29.5763785,12.3386639 C28.934475,11.7465204 28.5339133,10.9130536 28.3746815,9.83823849 L30.1361752,9.45011274 C30.2157911,10.1268482 30.3551169,10.5945848 30.5541568,10.8533366 C30.9124285,11.3509362 31.4349002,11.5997322 32.1215877,11.5997322 C32.6639712,11.5997322 33.1142921,11.4181111 33.4725638,11.0548634 C33.8308355,10.6916157 34.0099687,10.231343 34.0099687,9.67403144 C34.0099687,9.45011163 33.9788692,9.24485487 33.9166692,9.05825502 C33.8544693,8.87165518 33.7574388,8.69998589 33.6255749,8.54324202 C33.493711,8.38649815 33.3232857,8.23970847 33.1142939,8.10286858 C32.9053021,7.9660287 32.656506,7.83541076 32.3678982,7.71101086 L31.2557687,7.24824556 C29.678378,6.5814621 28.8896945,5.60618153 28.8896945,4.32237458 C28.8896945,3.45655129 29.2205932,2.73255474 29.8824007,2.15036322 C30.5442081,1.5631957 31.3677231,1.26961634 32.3529703,1.26961634 C33.6815612,1.26961634 34.7190408,1.91648611 35.4654402,3.21024505 Z M44.3176927,1.49353504 L44.3176927,13.017884 L42.5785908,13.017884 L42.5785908,1.49353504 L44.3176927,1.49353504 Z M50.9904699,8.10660056 L54.5582411,13.017884 L52.4310135,13.017884 L49.1394086,8.30066343 L48.8259225,8.30066343 L48.8259225,13.017884 L47.0868206,13.017884 L47.0868206,1.49353504 L49.1244807,1.49353504 C50.6471355,1.49353504 51.7468141,1.77965051 52.4235495,2.35189004 C53.1699489,2.98881752 53.543143,3.82974822 53.543143,4.87470737 C53.543143,5.6907707 53.3092747,6.3923756 52.8415311,6.97954312 C52.3737875,7.56671064 51.7567732,7.9423927 50.9904699,8.10660056 Z M48.8259225,6.78548025 L49.3782553,6.78548025 C51.0253099,6.78548025 51.8488249,6.15602621 51.8488249,4.89709924 C51.8488249,3.7177882 51.0477016,3.12814153 49.4454309,3.12814153 L48.8259225,3.12814153 L48.8259225,6.78548025 Z M62.8059131,3.21024505 L61.3952253,4.04620819 C61.1314976,3.58841656 60.8802135,3.28986128 60.6413657,3.1505334 C60.3925659,2.99130153 60.071619,2.91168679 59.6785153,2.91168679 C59.1958437,2.91168679 58.7952821,3.04852462 58.4768183,3.3222044 C58.1583546,3.59090818 57.9991251,3.92927083 57.9991251,4.33730249 C57.9991251,4.89959003 58.4171025,5.35239887 59.2530698,5.69574259 L60.4025191,6.16597185 C61.3380063,6.54414754 62.0221955,7.00566424 62.4551072,7.5505358 C62.8880188,8.09540735 63.1044714,8.76342478 63.1044714,9.55460814 C63.1044714,10.6144953 62.751181,11.4902574 62.0445896,12.1819209 C61.3330221,12.8785603 60.4497961,13.2268748 59.394885,13.2268748 C58.3947098,13.2268748 57.5687069,12.9308075 56.9168514,12.3386639 C56.2749479,11.7465204 55.8743863,10.9130536 55.7151544,9.83823849 L57.4766481,9.45011274 C57.5562641,10.1268482 57.6955899,10.5945848 57.8946297,10.8533366 C58.2529014,11.3509362 58.7753731,11.5997322 59.4620606,11.5997322 C60.0044441,11.5997322 60.454765,11.4181111 60.8130367,11.0548634 C61.1713084,10.6916157 61.3504416,10.231343 61.3504416,9.67403144 C61.3504416,9.45011163 61.3193421,9.24485487 61.2571421,9.05825502 C61.1949422,8.87165518 61.0979117,8.69998589 60.9660478,8.54324202 C60.8341839,8.38649815 60.6637586,8.23970847 60.4547668,8.10286858 C60.245775,7.9660287 59.9969789,7.83541076 59.7083712,7.71101086 L58.5962416,7.24824556 C57.0188509,6.5814621 56.2301674,5.60618153 56.2301674,4.32237458 C56.2301674,3.45655129 56.5610662,2.73255474 57.2228736,2.15036322 C57.8846811,1.5631957 58.708196,1.26961634 59.6934432,1.26961634 C61.0220342,1.26961634 62.0595137,1.91648611 62.8059131,3.21024505 Z M71.9716518,13.4134737 L70.6953152,12.4655512 L73.4495152,8.71118104 C73.3002353,8.73108503 73.1733493,8.74601279 73.0688534,8.75596478 C72.9643575,8.76591678 72.8797668,8.7708927 72.8150789,8.7708927 C71.8845677,8.7708927 71.0784684,8.41511432 70.396757,7.70354691 C69.7200215,6.99695548 69.3816589,6.14607294 69.3816589,5.15087376 C69.3816589,4.09098663 69.7573409,3.18536895 70.5087163,2.43399357 C71.2650677,1.67764218 72.1706854,1.29947217 73.2255965,1.29947217 C74.2755316,1.29947217 75.1886132,1.67266626 75.9648686,2.41906565 C76.7411239,3.16048905 77.1292458,4.03625119 77.1292458,5.04637837 C77.1292458,5.94205763 76.7510758,6.90987432 75.9947244,7.94985747 L71.9716518,13.4134737 Z M71.075977,5.0239865 C71.075977,5.64598599 71.2874537,6.16845772 71.7104133,6.59141738 C72.138349,7.01935303 72.6533568,7.23331764 73.2554523,7.23331764 C73.8575478,7.23331764 74.3700677,7.02184099 74.7930274,6.59888133 C75.220963,6.17094568 75.4349277,5.65593783 75.4349277,5.05384232 C75.4349277,4.45174682 75.220963,3.93673896 74.7930274,3.50880331 C74.3700677,3.08584366 73.8550599,2.874367 73.2479884,2.874367 C72.6508689,2.874367 72.1408369,3.08584366 71.7178773,3.50880331 C71.2899416,3.93673896 71.075977,4.44179497 71.075977,5.0239865 Z M81.4060929,13.4134737 L80.1297563,12.4655512 L82.8839563,8.71118104 C82.7346764,8.73108503 82.6077904,8.74601279 82.5032945,8.75596478 C82.3987986,8.76591678 82.3142079,8.7708927 82.24952,8.7708927 C81.3190088,8.7708927 80.5129095,8.41511432 79.8311981,7.70354691 C79.1544626,6.99695548 78.8161,6.14607294 78.8161,5.15087376 C78.8161,4.09098663 79.191782,3.18536895 79.9431574,2.43399357 C80.6995088,1.67764218 81.6051265,1.29947217 82.6600376,1.29947217 C83.7099728,1.29947217 84.6230543,1.67266626 85.3993097,2.41906565 C86.175565,3.16048905 86.5636869,4.03625119 86.5636869,5.04637837 C86.5636869,5.94205763 86.1855169,6.90987432 85.4291655,7.94985747 L81.4060929,13.4134737 Z M80.5104181,5.0239865 C80.5104181,5.64598599 80.7218948,6.16845772 81.1448544,6.59141738 C81.5727901,7.01935303 82.0877979,7.23331764 82.6898934,7.23331764 C83.2919889,7.23331764 83.8045088,7.02184099 84.2274685,6.59888133 C84.6554041,6.17094568 84.8693688,5.65593783 84.8693688,5.05384232 C84.8693688,4.45174682 84.6554041,3.93673896 84.2274685,3.50880331 C83.8045088,3.08584366 83.289501,2.874367 82.6824295,2.874367 C82.08531,2.874367 81.575278,3.08584366 81.1523184,3.50880331 C80.7243827,3.93673896 80.5104181,4.44179497 80.5104181,5.0239865 Z M88.0564782,7.18106995 C88.0564782,5.34492745 88.4844074,3.87951863 89.3402787,2.78479952 C90.1065821,1.79457633 91.0345914,1.29947217 92.1243345,1.29947217 C93.2140777,1.29947217 94.142087,1.79457633 94.9083904,2.78479952 C95.7642617,3.87951863 96.1921909,5.36980706 96.1921909,7.25570951 C96.1921909,9.13663597 95.7642617,10.6244364 94.9083904,11.7191555 C94.142087,12.7093787 93.2165656,13.2044829 92.1317985,13.2044829 C91.0470314,13.2044829 90.1165341,12.7093787 89.3402787,11.7191555 C88.4844074,10.6244364 88.0564782,9.11175637 88.0564782,7.18106995 Z M89.7657243,7.1885339 C89.7657243,8.46736486 89.9871528,9.52972405 90.4300164,10.3756434 C90.87288,11.2066347 91.4376471,11.6221241 92.1243345,11.6221241 C92.806046,11.6221241 93.3708131,11.2066347 93.8186527,10.3756434 C94.2664923,9.54962804 94.4904088,8.50717253 94.4904088,7.24824556 C94.4904088,5.98931859 94.2664923,4.94437511 93.8186527,4.11338379 C93.3708131,3.28736847 92.806046,2.874367 92.1243345,2.874367 C91.4475991,2.874367 90.88532,3.28736847 90.4374804,4.11338379 C89.9896407,4.93442312 89.7657243,5.95946291 89.7657243,7.1885339 Z M7.16958083,22.8727946 L3.1539722,22.8727946 L3.1539722,25.6419225 L7.02776566,25.6419225 L7.02776566,27.276529 L3.1539722,27.276529 L3.1539722,32.7625371 L1.41487031,32.7625371 L1.41487031,21.2381882 L7.16958083,21.2381882 L7.16958083,22.8727946 Z M10.5432892,25.4926434 L10.5432892,32.7625371 L8.86389897,32.7625371 L8.86389897,25.4926434 L10.5432892,25.4926434 Z M8.61012445,22.469741 C8.61012445,22.1761572 8.71710676,21.9223852 8.93107458,21.7084174 C9.14504241,21.4944496 9.40130235,21.3874673 9.69986211,21.3874673 C10.0033979,21.3874673 10.2621458,21.4944496 10.4761136,21.7084174 C10.6900814,21.9174093 10.7970637,22.1736692 10.7970637,22.477205 C10.7970637,22.7807407 10.6900814,23.0394886 10.4761136,23.2534564 C10.2671218,23.4674243 10.0108618,23.5744066 9.70732607,23.5744066 C9.40379031,23.5744066 9.14504241,23.4674243 8.93107458,23.2534564 C8.71710676,23.0394886 8.61012445,22.7782527 8.61012445,22.469741 Z M14.3499071,20.1559145 L14.3499071,32.7625371 L12.6705168,32.7625371 L12.6705168,20.1559145 L14.3499071,20.1559145 Z M18.1565249,25.4926434 L18.1565249,32.7625371 L16.4771347,32.7625371 L16.4771347,25.4926434 L18.1565249,25.4926434 Z M16.2233602,22.469741 C16.2233602,22.1761572 16.3303425,21.9223852 16.5443103,21.7084174 C16.7582781,21.4944496 17.0145381,21.3874673 17.3130978,21.3874673 C17.6166336,21.3874673 17.8753815,21.4944496 18.0893493,21.7084174 C18.3033171,21.9174093 18.4102994,22.1736692 18.4102994,22.477205 C18.4102994,22.7807407 18.3033171,23.0394886 18.0893493,23.2534564 C17.8803575,23.4674243 17.6240975,23.5744066 17.3205618,23.5744066 C17.017026,23.5744066 16.7582781,23.4674243 16.5443103,23.2534564 C16.3303425,23.0394886 16.2233602,22.7782527 16.2233602,22.469741 Z M20.2837525,25.4926434 L21.9706067,25.4926434 L21.9706067,26.1643995 C22.5577742,25.582208 23.2195718,25.2911166 23.9560192,25.2911166 C24.8019385,25.2911166 25.461248,25.5573284 25.9339677,26.0897599 C26.3419993,26.5425756 26.5460121,27.2814999 26.5460121,28.306555 L26.5460121,32.7625371 L24.8591579,32.7625371 L24.8591579,28.7021447 C24.8591579,27.9856013 24.7596395,27.4904972 24.5605996,27.2168174 C24.3665358,26.9381616 24.0132454,26.7988358 23.5007178,26.7988358 C22.9434063,26.7988358 22.5478205,26.9829449 22.3139487,27.3511686 C22.0850529,27.7144163 21.9706067,28.3488463 21.9706067,29.2544775 L21.9706067,32.7625371 L20.2837525,32.7625371 L20.2837525,25.4926434 Z M35.6968229,32.5908661 C35.6968229,32.9342098 35.685627,33.236497 35.6632351,33.4977368 C35.6408431,33.7589766 35.6097436,33.989113 35.5699356,34.1881528 C35.4505117,34.7355124 35.2166434,35.2057369 34.8683237,35.5988406 C34.2114922,36.355192 33.3083625,36.733362 32.1589074,36.733362 C31.1885882,36.733362 30.3899529,36.4721261 29.7629774,35.9496466 C29.1160979,35.412239 28.7429038,34.6683388 28.6433839,33.7179236 L30.3302381,33.7179236 C30.394926,34.0761953 30.5019083,34.3523589 30.6511882,34.5464227 C30.9995079,34.9992384 31.5070519,35.2256428 32.1738354,35.2256428 C33.4029063,35.2256428 34.0174326,34.4717907 34.0174326,32.9640639 L34.0174326,31.9489658 C33.3506492,32.6306773 32.5818693,32.9715279 31.71107,32.9715279 C30.7208469,32.9715279 29.9097717,32.6132616 29.2778202,31.8967181 C28.6408927,31.1702227 28.3224338,30.2621171 28.3224338,29.172374 C28.3224338,28.1124869 28.6185011,27.2118451 29.2106446,26.4704217 C29.8475721,25.6842144 30.6885028,25.2911166 31.7334619,25.2911166 C32.6490452,25.2911166 33.4103611,25.6319672 34.0174326,26.3136786 L34.0174326,25.4926434 L35.6968229,25.4926434 L35.6968229,32.5908661 Z M34.0846082,29.1425182 C34.0846082,28.4359267 33.8955232,27.8711597 33.5173475,27.4482 C33.1341958,27.0152884 32.6440676,26.7988358 32.0469481,26.7988358 C31.4100206,26.7988358 30.9074526,27.0351921 30.5392289,27.5079117 C30.2058371,27.9308713 30.0391438,28.4782227 30.0391438,29.1499821 C30.0391438,29.8117896 30.2058371,30.354165 30.5392289,30.7771247 C30.9024766,31.2398923 31.4050446,31.4712726 32.0469481,31.4712726 C32.6888516,31.4712726 33.1963955,31.2374043 33.5695952,30.7696607 C33.912939,30.346701 34.0846082,29.8043256 34.0846082,29.1425182 Z M42.0411859,26.7316602 L40.65289,27.4705919 C40.4339462,27.0227523 40.1627585,26.7988358 39.8393188,26.7988358 C39.6850629,26.7988358 39.553201,26.849839 39.4437291,26.9518469 C39.3342571,27.0538548 39.279522,27.1844728 39.279522,27.3437046 C39.279522,27.6223604 39.6029569,27.898524 40.2498364,28.1722038 C41.1405396,28.5553555 41.7401382,28.9086459 42.0486499,29.2320856 C42.3571616,29.5555254 42.5114152,29.9909185 42.5114152,30.5382781 C42.5114152,31.2398935 42.2526673,31.8270522 41.7351637,32.2997718 C41.2325881,32.7476114 40.6255257,32.9715279 39.9139583,32.9715279 C38.6948393,32.9715279 37.831517,32.3769053 37.3239654,31.1876423 L38.757045,30.5233501 C38.9560849,30.8716699 39.1078505,31.0930983 39.2123464,31.1876423 C39.4163622,31.3767301 39.6601824,31.4712726 39.9438141,31.4712726 C40.5110777,31.4712726 40.7947052,31.2125247 40.7947052,30.6950211 C40.7947052,30.3964614 40.5757647,30.1178098 40.137877,29.859058 C39.9686932,29.7744661 39.7995118,29.6923634 39.630328,29.6127474 C39.4611441,29.5331315 39.2894748,29.4510288 39.115315,29.3664369 C38.6276674,29.1275891 38.2843288,28.8887448 38.085289,28.649897 C37.8315132,28.3463613 37.7046272,27.9557515 37.7046272,27.4780559 C37.7046272,26.8461044 37.9210797,26.3236326 38.3539914,25.910625 C38.796855,25.4976173 39.3342545,25.2911166 39.966206,25.2911166 C40.8967173,25.2911166 41.5883703,25.771293 42.0411859,26.7316602 Z M55.4165961,22.8727946 L50.796407,22.8727946 L50.796407,25.6419225 L55.2822449,25.6419225 L55.2822449,27.276529 L50.796407,27.276529 L50.796407,31.1279306 L55.4165961,31.1279306 L55.4165961,32.7625371 L49.0573051,32.7625371 L49.0573051,21.2381882 L55.4165961,21.2381882 L55.4165961,22.8727946 Z M59.6337316,28.829032 L57.0213468,25.4926434 L59.0216871,25.4926434 L60.6413657,27.6124071 L62.2909001,25.4926434 L64.3509521,25.4926434 L61.6639278,28.829032 L64.7763977,32.7625371 L62.7760573,32.7625371 L60.6413657,30.0456569 L58.4544264,32.7625371 L56.4018384,32.7625371 L59.6337316,28.829032 Z M67.5903093,36.7184341 L65.9109191,36.7184341 L65.9109191,25.4926434 L67.5903093,25.4926434 L67.5903093,26.2838228 C68.2521168,25.6220153 69.0034809,25.2911166 69.8444242,25.2911166 C70.8445994,25.2911166 71.6681143,25.6593348 72.3149938,26.3957822 C72.9718253,27.1272536 73.3002361,28.050287 73.3002361,29.16491 C73.3002361,30.2546531 72.9743132,31.1627588 72.3224578,31.8892542 C71.6755783,32.6107736 70.8595272,32.9715279 69.87428,32.9715279 C69.0233847,32.9715279 68.2620687,32.6306773 67.5903093,31.9489658 L67.5903093,36.7184341 Z M71.5835261,29.172374 C71.5835261,28.4757346 71.3944411,27.9084795 71.0162654,27.4705919 C70.6331137,27.0277283 70.1504493,26.8062998 69.5682578,26.8062998 C68.9512343,26.8062998 68.4511542,27.0202644 68.0680025,27.4482 C67.6848508,27.8761357 67.4932779,28.4384148 67.4932779,29.1350542 C67.4932779,29.8167657 67.6848508,30.3790448 68.0680025,30.8219084 C68.4461782,31.25482 68.9437703,31.4712726 69.5607938,31.4712726 C70.1429854,31.4712726 70.6231618,31.2523321 71.0013374,30.8144444 C71.3894651,30.3765568 71.5835261,29.8292055 71.5835261,29.172374 Z M76.756048,20.1559145 L76.756048,32.7625371 L75.0766577,32.7625371 L75.0766577,20.1559145 L76.756048,20.1559145 Z M78.5399336,29.0753426 C78.5399336,28.0254074 78.9156156,27.1322295 79.666991,26.3957822 C80.4183664,25.6593348 81.3339359,25.2911166 82.413727,25.2911166 C83.4984942,25.2911166 84.4190396,25.6618227 85.175391,26.4032461 C85.9217904,27.1446695 86.2949845,28.0552631 86.2949845,29.1350542 C86.2949845,30.2247973 85.9193024,31.1378789 85.167927,31.8743263 C84.4115756,32.6057977 83.4835663,32.9715279 82.3838712,32.9715279 C81.2941281,32.9715279 80.3810466,32.5983338 79.6445992,31.8519344 C78.9081518,31.115487 78.5399336,30.1899656 78.5399336,29.0753426 Z M80.2566436,29.1051984 C80.2566436,29.8316938 80.4507045,30.4064127 80.8388322,30.8293724 C81.2369119,31.257308 81.7618716,31.4712726 82.413727,31.4712726 C83.0705585,31.4712726 83.5955182,31.259796 83.9886219,30.8368363 C84.3817256,30.4138767 84.5782745,29.8491096 84.5782745,29.1425182 C84.5782745,28.4359267 84.3817256,27.8711597 83.9886219,27.4482 C83.5905422,27.0202644 83.0655825,26.8062998 82.413727,26.8062998 C81.7718236,26.8062998 81.2518398,27.0202644 80.8537601,27.4482 C80.4556804,27.8761357 80.2566436,28.4284629 80.2566436,29.1051984 Z M88.0714061,25.4926434 L89.7507964,25.4926434 L89.7507964,26.1420076 C90.0593081,25.8185679 90.3329838,25.5971394 90.5718316,25.4777155 C90.8156554,25.3533156 91.1042588,25.2911166 91.4376505,25.2911166 C91.8805142,25.2911166 92.3432749,25.4354183 92.8259465,25.7240261 L92.0571589,27.2616011 C91.7386952,27.0327053 91.4277001,26.9182591 91.1241644,26.9182591 C90.2085811,26.9182591 89.7507964,27.6099122 89.7507964,28.993239 L89.7507964,32.7625371 L88.0714061,32.7625371 L88.0714061,25.4926434 Z M100.409326,29.52318 L95.1994847,29.52318 C95.2442686,30.1202995 95.4383296,30.5955 95.7816733,30.9487957 C96.125017,31.2971154 96.565386,31.4712726 97.1027936,31.4712726 C97.5207772,31.4712726 97.8666038,31.3717542 98.1402835,31.1727144 C98.4089873,30.9736745 98.7150065,30.6054563 99.0583502,30.0680488 L100.476502,30.8592282 C100.257558,31.2324279 100.026178,31.5521308 99.782354,31.8183466 C99.5385302,32.0845624 99.2772943,32.3035029 98.9986386,32.4751748 C98.7199828,32.6468466 98.4189395,32.7724887 98.0954998,32.8521046 C97.7720601,32.9317205 97.4212576,32.9715279 97.0430819,32.9715279 C95.9583148,32.9715279 95.0875286,32.6232134 94.4306971,31.926574 C93.7738657,31.2249585 93.4454549,30.2944613 93.4454549,29.1350542 C93.4454549,27.9855992 93.7639138,27.0551019 94.4008413,26.3435345 C95.0427448,25.641919 95.8936273,25.2911166 96.9535145,25.2911166 C98.0233536,25.2911166 98.8692602,25.6319672 99.4912597,26.3136786 C100.108283,26.9904141 100.41679,27.9283752 100.41679,29.1275903 L100.409326,29.52318 Z M98.6851524,28.1498119 C98.4512806,27.2541327 97.8865135,26.8062998 96.9908342,26.8062998 C96.7868184,26.8062998 96.5952454,26.8373993 96.4161096,26.8995992 C96.2369737,26.9617992 96.0740123,27.0513658 95.9272204,27.1683017 C95.7804285,27.2852376 95.6547865,27.4258073 95.5502906,27.5900152 C95.4457947,27.7542231 95.36618,27.9408201 95.311444,28.1498119 L98.6851524,28.1498119 Z M102.24546,25.4926434 L103.92485,25.4926434 L103.92485,26.1420076 C104.233362,25.8185679 104.507037,25.5971394 104.745885,25.4777155 C104.989709,25.3533156 105.278312,25.2911166 105.611704,25.2911166 C106.054568,25.2911166 106.517328,25.4354183 107,25.7240261 L106.231212,27.2616011 C105.912749,27.0327053 105.601754,26.9182591 105.298218,26.9182591 C104.382635,26.9182591 103.92485,27.6099122 103.92485,28.993239 L103.92485,32.7625371 L102.24546,32.7625371 L102.24546,25.4926434 Z" id="AWS-IRS-990-Filings"></path>
                </g>
                <g id="Group" transform="translate(0.000000, 3.000000)" fill="#F8AE43">
                    <g id="shutterstock_295799150">
                        <path d="M31.1192373,19.6289385 C29.6898658,26.4614598 23.6261041,31.6076909 16.3829577,31.6076909 C14.0885377,31.6076909 11.9122382,31.0912194 9.96510436,30.1676286 C9.23596517,28.3890535 12.5431346,25.4425484 13.2305644,24.2439244 C14.5151323,22.0064883 11.7267359,20.7451942 10.0930625,19.6300178 C8.81738901,18.7600575 8.26788989,19.3400086 7.01600217,19.602157 C6.00722824,19.8126987 6.55376256,17.805705 6.07865302,17.3667447 C6.11928428,17.4044547 5.20174539,17.7024242 5.04205037,17.6527064 C4.5213233,17.485946 4.53715804,16.7639248 4.81982497,16.3875671 C5.90898547,14.9386675 6.51110984,17.0341009 7.31558195,16.9148996 C7.47130145,16.0816373 8.58923401,15.3309457 8.58923401,14.5225086 C9.14567347,14.0121085 10.7129757,13.8194436 10.9976641,13.1351998 C10.960941,13.1242713 10.400526,12.9753203 10.4441894,12.8422223 C10.5066524,12.5889785 11.2476508,12.6198076 11.4827462,12.5333917 C11.2208328,13.047772 11.4549848,13.5145257 12.149355,13.0845375 C11.5978344,12.4042739 12.0680251,9.99400605 10.6276703,10.4558352 C10.719916,10.2383451 10.7774602,9.97019278 10.6723444,9.74379801 C11.2486616,9.84809071 11.4619252,9.32170263 11.3299915,8.83612767 C11.5333499,9.35246426 11.7684453,9.36346019 12.0342667,8.86985752 C11.7367084,8.40506015 11.5650868,7.87280308 11.2853173,7.39808913 C10.9996856,6.91150227 10.5681721,6.54506115 10.0166515,6.41196315 C10.2448065,6.37425318 10.4739048,6.33451941 10.6891899,6.24317897 C10.5741017,6.02764521 10.3945964,5.91343593 10.1694062,5.84395243 C10.8686952,5.72670747 11.6493815,5.13886359 12.3397761,5.13886359 C12.3000882,5.16166497 11.6156906,5.61155375 11.8507859,5.82803194 C11.4678548,6.70494065 12.350692,6.02568888 12.5044574,6.43975655 C12.9885287,7.73876064 12.4578292,9.86792386 13.8078249,10.6643531 C14.3117739,9.78251988 15.3314637,9.47362189 16.1250199,8.93738469 C17.0168189,8.33260843 17.0703875,7.5838057 17.2330473,6.59963605 C17.2876266,6.17862003 17.5405108,5.59765705 17.9660947,5.42482528 C16.2708343,4.86477481 14.169935,4.19240392 12.371513,4.19240392 C11.0274469,3.60449259 9.73890343,4.80912055 8.45035998,4.22316555 C8.43149306,4.76540666 9.05443842,5.42583718 9.26082908,5.90844391 C9.10504221,5.89953923 8.30259155,4.69093115 8.18548186,5.22028746 C8.22516978,5.00677749 7.71832338,4.76641856 7.17967273,4.61045172 C7.21343104,4.58468211 7.2451679,4.55688871 7.27885884,4.53105165 C7.30958497,4.5091947 7.34037848,4.48538143 7.37016127,4.46251259 C9.88572852,2.57667652 13.0063849,1.45745255 16.3829577,1.45745255 C19.83392,1.45745255 23.0190609,2.62632686 25.5614461,4.58960667 C25.6060529,4.62340398 25.6486383,4.65713384 25.6933798,4.69295494 C25.780572,4.76142654 25.8669555,4.8309775 25.9512502,4.90147289 C25.9532043,4.90248478 25.954215,4.90342922 25.9551584,4.90444112 C26.5741956,5.41585314 27.1524668,5.97698297 27.6841097,6.5808148 C27.1534775,6.86778838 26.672371,7.06638976 26.5285107,7.95422694 C24.9464518,7.5977024 25.3937327,6.82609829 26.4541885,6.05247038 C25.4869892,5.66909688 24.2411658,7.1935513 25.3620632,7.82713285 C26.769603,8.62356214 23.9901684,7.83704943 24.1498634,8.99398338 C23.4019921,8.40310382 21.6363176,8.18163361 20.8704553,8.91849597 C19.8924749,9.86097551 20.4855701,11.7249546 19.3656834,12.5323799 C19.3716804,12.1003679 19.3895366,11.2185346 18.8657774,11.0149412 C18.0444598,10.6961267 18.1208708,11.976242 17.5733258,12.3784368 C17.8034348,12.6525256 18.4948402,12.8312938 18.8390268,12.8312938 C18.6386331,13.0110065 18.6048748,13.2503535 18.7120119,13.505621 C18.8826228,13.9117959 16.6229719,14.9475722 18.26965,15.4450876 C16.5168455,16.0181578 15.8998971,19.2247874 17.5485292,20.1920921 C18.2874388,20.6260604 19.0671818,20.4572762 19.854741,20.6528419 C21.0867511,20.9577598 21.1769754,22.7323548 21.2444247,23.7423615 C21.3952253,26.00071 21.9844797,28.0931077 23.8572913,25.5527776 C24.3512678,24.8834424 24.4761938,24.1723496 24.8501631,23.4364992 C25.5356389,22.0888566 26.7596979,20.7988247 26.8896101,19.2307913 C26.4630155,19.3529608 26.0405312,19.3449331 25.6199336,19.2059661 C26.9352276,18.7510853 27.543349,18.381676 27.543349,16.9357447 C29.2236506,16.9357447 30.3772956,18.2476336 31.1192373,19.6289385 Z M1.32425584,16.5315261 C1.32425584,14.8671603 1.59607429,13.2642502 2.09598037,11.7657003 C2.12374169,11.6852883 2.15251375,11.6048089 2.18027508,11.5253414 C2.09200484,13.4003164 1.81823231,15.1859074 2.78933978,17.0082638 C2.99768451,16.9307526 3.06210158,16.7321513 2.97086653,16.5504148 C3.81994544,17.6686269 4.94582906,19.138439 6.2909059,19.7253384 C6.43079065,19.7878736 7.24914343,19.8901425 7.2154525,19.8116868 C7.64494452,20.7373014 6.36131995,21.4641798 6.950507,22.3927626 C8.00200104,24.0472794 8.57831815,24.488196 8.66166952,26.4813604 C8.70135744,27.0602996 8.72716469,27.6352587 8.79461394,28.2142654 C8.82331862,28.4933462 8.8947434,29.1010906 9.04850882,29.6959503 C4.44390153,27.1148745 1.32425584,22.1802645 1.32425584,16.5315261 Z M16.5,0.013477551 C7.40189813,0.013477551 0,7.4239262 0,16.532538 C0,25.6411498 7.40189813,33.0515985 16.5,33.0515985 C25.5981019,33.0515985 33,25.6411498 33,16.532538 C33,7.4239262 25.5981019,0.013477551 16.5,0.013477551 L16.5,0.013477551 Z" id="Fill-5"></path>
                    </g>
                </g>
            </g>
        </g>
    </g>
</svg>